<svg xmlns="http://www.w3.org/2000/svg" width="1200" height="420" viewBox="0 0 1200 420" role="img" aria-label="ASCII Arcade — live ASCII wallpapers for macOS">
  <defs>
    <radialGradient id="bg" cx="32%" cy="38%" r="85%">
      <stop offset="0%" stop-color="#0f1710"/>
      <stop offset="100%" stop-color="#070a07"/>
    </radialGradient>
    <linearGradient id="ph" x1="0" y1="0" x2="0" y2="1">
      <stop offset="0%" stop-color="#8dffb0"/>
      <stop offset="100%" stop-color="#2ff05f"/>
    </linearGradient>
    <filter id="glow" x="-20%" y="-20%" width="140%" height="140%">
      <feGaussianBlur stdDeviation="3" result="b"/>
      <feMerge><feMergeNode in="b"/><feMergeNode in="SourceGraphic"/></feMerge>
    </filter>
  </defs>

  <rect width="1200" height="420" fill="url(#bg)"/>

  <!-- scanlines -->
  <g opacity="0.06" fill="#33ff66">
    <rect x="0" y="0" width="1200" height="2"/>
    <rect x="0" y="8" width="1200" height="2"/>
    <rect x="0" y="16" width="1200" height="2"/>
    <rect x="0" y="24" width="1200" height="2"/>
    <rect x="0" y="32" width="1200" height="2"/>
    <rect x="0" y="40" width="1200" height="2"/>
    <rect x="0" y="48" width="1200" height="2"/>
    <rect x="0" y="56" width="1200" height="2"/>
    <rect x="0" y="64" width="1200" height="2"/>
    <rect x="0" y="72" width="1200" height="2"/>
    <rect x="0" y="80" width="1200" height="2"/>
    <rect x="0" y="88" width="1200" height="2"/>
    <rect x="0" y="96" width="1200" height="2"/>
    <rect x="0" y="104" width="1200" height="2"/>
    <rect x="0" y="112" width="1200" height="2"/>
    <rect x="0" y="120" width="1200" height="2"/>
    <rect x="0" y="128" width="1200" height="2"/>
    <rect x="0" y="136" width="1200" height="2"/>
    <rect x="0" y="144" width="1200" height="2"/>
    <rect x="0" y="152" width="1200" height="2"/>
    <rect x="0" y="160" width="1200" height="2"/>
    <rect x="0" y="168" width="1200" height="2"/>
    <rect x="0" y="176" width="1200" height="2"/>
    <rect x="0" y="184" width="1200" height="2"/>
    <rect x="0" y="192" width="1200" height="2"/>
    <rect x="0" y="200" width="1200" height="2"/>
    <rect x="0" y="208" width="1200" height="2"/>
    <rect x="0" y="216" width="1200" height="2"/>
    <rect x="0" y="224" width="1200" height="2"/>
    <rect x="0" y="232" width="1200" height="2"/>
    <rect x="0" y="240" width="1200" height="2"/>
    <rect x="0" y="248" width="1200" height="2"/>
    <rect x="0" y="256" width="1200" height="2"/>
    <rect x="0" y="264" width="1200" height="2"/>
    <rect x="0" y="272" width="1200" height="2"/>
    <rect x="0" y="280" width="1200" height="2"/>
    <rect x="0" y="288" width="1200" height="2"/>
    <rect x="0" y="296" width="1200" height="2"/>
    <rect x="0" y="304" width="1200" height="2"/>
    <rect x="0" y="312" width="1200" height="2"/>
    <rect x="0" y="320" width="1200" height="2"/>
    <rect x="0" y="328" width="1200" height="2"/>
    <rect x="0" y="336" width="1200" height="2"/>
    <rect x="0" y="344" width="1200" height="2"/>
    <rect x="0" y="352" width="1200" height="2"/>
    <rect x="0" y="360" width="1200" height="2"/>
    <rect x="0" y="368" width="1200" height="2"/>
    <rect x="0" y="376" width="1200" height="2"/>
    <rect x="0" y="384" width="1200" height="2"/>
    <rect x="0" y="392" width="1200" height="2"/>
    <rect x="0" y="400" width="1200" height="2"/>
    <rect x="0" y="408" width="1200" height="2"/>
    <rect x="0" y="416" width="1200" height="2"/>
  </g>

  <!-- ASCII donut -->
  <g font-family="'SFMono-Regular','Menlo','Consolas',monospace" font-size="22" fill="url(#ph)" filter="url(#glow)" letter-spacing="2.5">
    <text x="70" y="95"  xml:space="preserve">         .~=#@@@#=~.</text>
    <text x="70" y="121" xml:space="preserve">      :=#$$$$$$$$$#=:</text>
    <text x="70" y="147" xml:space="preserve">    ~#$$;;;;;;;;;;;$$#~</text>
    <text x="70" y="173" xml:space="preserve">   =$$;:~-,,,,,,-~:;$$=</text>
    <text x="70" y="199" xml:space="preserve">  =$#;~-.        .-~;#$=</text>
    <text x="70" y="225" xml:space="preserve">  #$;:-.          .-:;$#</text>
    <text x="70" y="251" xml:space="preserve">  =$#;~-.        .-~;#$=</text>
    <text x="70" y="277" xml:space="preserve">   =$$;:~-,,,,,,-~:;$$=</text>
    <text x="70" y="303" xml:space="preserve">    ~#$$;;;;;;;;;;;$$#~</text>
    <text x="70" y="329" xml:space="preserve">      :=#$$$$$$$$$#=:</text>
    <text x="70" y="355" xml:space="preserve">         .~=#@@@#=~.</text>
  </g>

  <!-- wordmark -->
  <text x="550" y="200" font-family="'SFMono-Regular','Menlo','Consolas',monospace" font-size="74" font-weight="700" fill="url(#ph)" filter="url(#glow)" letter-spacing="2">ASCII ARCADE</text>
  <text x="563" y="255" font-family="system-ui,'Helvetica Neue',Arial,sans-serif" font-size="27" fill="#9fe6b4">Live ASCII scenes as your macOS desktop wallpaper.</text>

  <!-- scene chips -->
  <g font-family="'SFMono-Regular','Menlo','Consolas',monospace" font-size="22" font-weight="700">
    <rect x="563" y="290" width="120" height="44" rx="8" fill="none" stroke="#33ff66" stroke-width="2"/>
    <text x="585" y="319" fill="#33ff66">donut</text>
    <rect x="699" y="290" width="120" height="44" rx="8" fill="none" stroke="#33ff66" stroke-width="2"/>
    <text x="723" y="319" fill="#33ff66">helix</text>
    <rect x="835" y="290" width="120" height="44" rx="8" fill="none" stroke="#ff5a4d" stroke-width="2"/>
    <text x="861" y="319" fill="#ff7a6d">doom</text>
  </g>
</svg>
